# xmcd
#
# Track frame offsets: 
#        150
#        14925
#        25122
#        40924
#        57963
#        76255
#        95895
#        109937
#        131376
#        143839
#        154093
#        169517
#        185071
#
# Disc length: 2659 seconds
#
# Revision: 0
# Processed by: cddbd v1.5.2PL0 Copyright (c) Steve Scherf et al.
# Submitted via: ExactAudioCopy v1.3
#
DISCID=af0a610d
DTITLE=My Own Holiday - Reason To Bleed
DYEAR=2015
DGENRE=Blues
TTITLE0=Hold On Me
TTITLE1=Razorblades
TTITLE2=Two Coins
TTITLE3=Memphis
TTITLE4=Devil In Me
TTITLE5=Reason To Bleed
TTITLE6=Whiskey In The Well
TTITLE7=On The Floor Blues
TTITLE8=Smile
TTITLE9=Stone Free
TTITLE10=Stranded
TTITLE11=Don't Shine On Me
TTITLE12=Right Back Where I Started
EXTD=
EXTT0=
EXTT1=
EXTT2=
EXTT3=
EXTT4=
EXTT5=
EXTT6=
EXTT7=
EXTT8=
EXTT9=
EXTT10=
EXTT11=
EXTT12=
PLAYORDER=
